<svg xmlns="http://www.w3.org/2000/svg" viewBox="0 0 364.504 66"><defs><style>.cls-1{fill:#adf;}.cls-2{fill:#afa;}.cls-3{fill:#ddf;}.cls-4{fill:#fda;}.cls-5{fill:#fdd;}</style></defs><title>logo</title><g id="Layer_2" data-name="Layer 2"><g id="Layer_1-2" data-name="Layer 1"><polygon class="cls-1" points="194.003 47.823 219.17 47.823 219.17 0 168.837 0 168.837 66 194.003 66 194.003 47.823"/><rect class="cls-2" x="56.279" width="22.227" height="66"/><rect class="cls-1" x="84.386" width="22.227" height="66"/><rect class="cls-2" x="342.277" width="22.227" height="42"/><rect class="cls-3" x="342.277" y="47.75" width="22.227" height="18.25"/><path class="cls-3" d="M154.15,0H121.3l-8.741,8.741V66h22.227V47.833h5.88V66h22.227V8.741Z"/><polygon class="cls-2" points="250.282 47.92 250.282 42.04 275.449 42.04 275.449 23.96 250.282 23.96 250.282 18.08 275.449 18.08 275.449 0 225.116 0 225.116 66 275.449 66 275.449 47.92 250.282 47.92"/><polygon class="cls-3" points="8.675 0 0 0 0 24.509 41.491 66 50.333 66 50.333 41.658 8.675 0"/><polygon class="cls-4" points="50.333 19.332 50.333 0 16.991 0 43.328 26.337 50.333 19.332"/><polygon class="cls-1" points="0 46.668 0 66 33.342 66 7.005 39.663 0 46.668"/><polygon class="cls-4" points="290.07 0 281.394 0 281.394 24.509 322.886 66 331.728 66 331.728 41.658 290.07 0"/><polygon class="cls-1" points="331.728 19.332 331.728 0 298.386 0 324.723 26.337 331.728 19.332"/><polygon class="cls-5" points="281.394 46.668 281.394 66 314.737 66 288.4 39.663 281.394 46.668"/></g></g></svg>